PathFileType	4	(X/Y/Z)	s03c0401.trc
DataRate	CameraRate	NumFrames	NumMarkers	Units	OrigDataRate	OrigDataStartFrame	OrigNumFrames
200	200	4	52	mm	200	0	2000
Frame#	Time	racr			lacr			c7			jug			rlel			rdr			llel			ldr			s2			lic			ric			lasi			rasi			rpsi			lpsi			rgt			lgt			rth1			rth2			rth3			rth4			rlfc			rmfc			rsh1			rsh2			rsh3			rsh4			rlmal			rmmal			rcal			rtoe			rmt5			rmt1			lth1			lth2			lth4			lth3			llfc			lmfc			lsh1			lsh2			lsh3			lsh4			llmal			lmmal			lcal			ltoe			lmt1			lmt5			SBIKE			LBIKE			RBIKE			
		X1	Y1	Z1	X2	Y2	Z2	X3	Y3	Z3	X4	Y4	Z4	X5	Y5	Z5	X6	Y6	Z6	X7	Y7	Z7	X8	Y8	Z8	X9	Y9	Z9	X10	Y10	Z10	X11	Y11	Z11	X12	Y12	Z12	X13	Y13	Z13	X14	Y14	Z14	X15	Y15	Z15	X16	Y16	Z16	X17	Y17	Z17	X18	Y18	Z18	X19	Y19	Z19	X20	Y20	Z20	X21	Y21	Z21	X22	Y22	Z22	X23	Y23	Z23	X24	Y24	Z24	X25	Y25	Z25	X26	Y26	Z26	X27	Y27	Z27	X28	Y28	Z28	X29	Y29	Z29	X30	Y30	Z30	X31	Y31	Z31	X32	Y32	Z32	X33	Y33	Z33	X34	Y34	Z34	X35	Y35	Z35	X36	Y36	Z36	X37	Y37	Z37	X38	Y38	Z38	X39	Y39	Z39	X40	Y40	Z40	X41	Y41	Z41	X42	Y42	Z42	X43	Y43	Z43	X44	Y44	Z44	X45	Y45	Z45	X46	Y46	Z46	X47	Y47	Z47	X48	Y48	Z48	X49	Y49	Z49	X50	Y50	Z50	X51	Y51	Z51	X52	Y52	Z52	
0	0.0000	470.738811	1453.509005	-72.109852	463.126450	1469.267905	-387.668104	382.483914	1532.200622	-226.033211	433.253226	1368.020303	-225.124958	520.291386	1183.547448	21.528990	735.029711	985.506824	-21.187782	529.070495	1205.534258	-463.551458	731.872678	976.596119	-447.802339	-106.231310	1203.332110	-246.338971	89.279119	1219.176844	-423.894596	64.834161	1235.150019	-53.322396	103.016488	1138.570727	-385.038991	0.000000	0.000000	-0.000000	-79.415112	1253.962487	-200.950965	-69.218430	1249.802441	-284.902316	5.275339	1155.849923	-37.476400	17.528298	1102.226501	-438.756542	130.523367	1069.908436	-19.531267	219.335584	1069.667595	-16.698244	295.384454	1028.480071	-17.612456	229.702680	1102.823424	-29.758540	418.121244	967.695229	-36.528081	425.906139	956.701998	-164.466121	359.471839	812.968455	-23.056668	343.765491	727.407879	-41.935995	284.421037	661.128359	-47.432579	368.038135	718.334978	-69.461590	219.248062	546.602140	-73.443901	241.600624	561.731942	-161.968174	150.326032	503.619227	-114.988492	460.144358	491.292310	-121.363374	342.327136	477.334672	-49.795322	365.953873	492.202548	-164.925716	81.401227	956.321677	-459.243992	137.759702	890.437846	-463.440624	170.806944	906.222838	-458.476858	154.848520	803.246278	-453.722437	226.267585	691.975050	-436.369362	231.977750	681.521502	-313.135928	135.515396	543.114471	-456.990082	121.452479	461.289749	-437.748159	63.422389	391.265540	-429.425584	150.098001	450.795050	-412.931384	4.497503	277.167326	-405.155302	0.000000	0.000000	-0.000000	-63.534847	230.459502	-355.030593	244.617694	215.000391	-360.499543	151.406573	213.918123	-316.722308	123.803275	193.650956	-431.403756	-217.702570	944.334479	-234.364201	-11.599686	80.190617	-434.831072	-12.070868	80.956049	-34.789637	
1	0.0050	470.773403	1453.497260	-72.113308	463.115000	1469.236280	-387.702419	382.465917	1532.205981	-226.034871	433.236533	1368.016668	-225.154405	520.303056	1183.565453	21.520636	735.023307	985.527545	-21.192078	529.079350	1205.539332	-463.542061	731.863163	976.613605	-447.806491	-106.241294	1203.306452	-246.292408	89.260147	1219.179961	-423.935354	64.863135	1235.130760	-53.335126	100.973724	1135.852817	-378.746456	84.410306	1168.894114	-97.241471	-79.389446	1253.967925	-200.958476	-69.210188	1249.824671	-284.917119	5.275328	1155.843505	-37.485924	17.522352	1102.245681	-438.771070	130.544545	1069.883993	-19.551775	219.377988	1069.638757	-16.718757	295.401040	1028.469490	-17.656869	229.747282	1102.793770	-29.757355	418.136918	967.662764	-36.535640	425.895329	956.681663	-164.500605	359.468159	812.940697	-23.071455	343.526111	727.909737	-42.785427	284.411933	661.123870	-47.453674	368.773625	719.302068	-69.935309	219.241051	546.596568	-73.454640	241.562134	561.721402	-161.982154	150.323848	503.592171	-115.003180	460.109417	491.310580	-121.335853	342.307481	477.360715	-49.797841	365.931245	492.231114	-164.933757	81.411284	956.347102	-459.272546	137.753392	890.458469	-463.499414	170.813077	906.231536	-458.497514	154.849955	803.246319	-453.741745	226.273823	691.971085	-436.385562	231.993160	681.546063	-313.140863	135.529432	543.109678	-457.002810	121.465790	461.321468	-437.783884	63.442565	391.289231	-429.444922	150.102965	450.810659	-412.945942	4.514380	277.172069	-405.170213	0.000000	0.000000	-0.000000	-63.513711	230.457390	-355.052165	244.646437	214.986645	-360.493021	151.409398	213.935458	-316.732577	123.822313	193.644254	-431.393859	-217.714259	944.341866	-234.372248	-11.619843	80.147977	-434.820690	-12.085349	81.019964	-34.801642	
2	0.0100	470.761940	1453.507967	-72.151206	463.113778	1469.273030	-387.734599	382.466077	1532.207571	-226.034335	433.279946	1368.022375	-225.141996	520.309126	1183.588281	21.504240	735.020229	985.531308	-21.203174	529.088466	1205.540653	-463.545031	731.873022	976.605900	-447.808581	-106.232980	1203.306392	-246.284065	89.260147	1219.179961	-423.935354	64.874485	1235.124832	-53.344436	100.973724	1135.852817	-378.746456	84.433644	1168.881730	-97.232406	-79.388674	1253.977102	-200.955593	-69.207873	1249.829593	-284.911814	5.297568	1155.827801	-37.496713	17.515423	1102.267222	-438.779987	130.563668	1069.866059	-19.550337	219.399579	1069.627989	-16.722222	295.423218	1028.441120	-17.680152	229.753126	1102.781879	-29.764106	418.138855	967.654215	-36.552727	425.896334	956.660300	-164.525626	359.470020	812.928621	-23.103311	343.498507	727.920776	-42.786562	284.395168	661.124585	-47.472633	368.764642	719.296641	-69.942870	219.210450	546.588339	-73.469742	241.547697	561.719219	-162.004972	150.307799	503.618133	-114.983707	460.101323	491.320967	-121.359170	342.277379	477.366250	-49.796326	365.918552	492.235266	-164.933557	81.412216	956.349609	-459.288417	137.758776	890.472438	-463.508806	170.814410	906.246440	-458.529048	154.857797	803.255305	-453.764686	226.288862	691.985526	-436.405526	232.021886	681.540650	-313.163092	135.544930	543.102292	-457.011143	121.499100	461.348045	-437.796796	63.464109	391.277671	-429.452451	150.129266	450.812779	-412.964684	4.532090	277.170688	-405.175354	0.000000	0.000000	-0.000000	-63.490403	230.469235	-355.049451	244.659449	214.966216	-360.498966	151.440744	213.939776	-316.734677	123.852215	193.620243	-431.390848	-217.711254	944.344585	-234.367791	-11.607436	80.161123	-434.817474	-12.097790	80.997754	-34.793468	
3	0.0150	470.779549	1453.537890	-72.149171	463.123541	1469.275912	-387.757642	382.473710	1532.215694	-226.075076	430.845646	1367.951067	-226.569131	520.320232	1183.596946	21.503924	735.031927	985.539008	-21.218490	530.135915	1204.736642	-461.001674	731.942221	976.460063	-447.886385	-106.232980	1203.306392	-246.284065	89.073280	1218.363324	-421.912648	64.843415	1235.120301	-53.760516	100.426675	1136.342850	-379.800809	84.436406	1168.867550	-97.235132	-79.376840	1253.975830	-200.945884	-69.202733	1249.834881	-284.889856	5.306679	1155.832467	-37.492894	17.242491	1102.333193	-439.120635	130.489328	1069.839402	-19.556539	219.402461	1069.616675	-16.733638	295.581958	1028.404107	-17.567728	228.972361	1103.157326	-30.531792	417.931225	967.469086	-36.346932	426.745883	955.643061	-162.334393	359.461061	812.925599	-23.115896	343.758286	727.398926	-41.974817	284.393133	661.119952	-47.471893	369.228844	719.159123	-69.413686	219.127171	546.616198	-73.341802	241.516887	561.892533	-161.950563	150.307856	503.609801	-115.004469	460.096142	491.343453	-121.347439	342.262356	477.367667	-49.794624	365.910763	492.246408	-164.945483	81.400220	956.338057	-459.323790	138.299349	889.631324	-461.776224	171.305426	905.701019	-457.420765	154.855103	803.257073	-453.773269	226.871633	691.360831	-435.204585	232.030730	681.557250	-313.171665	136.182267	542.242933	-455.526365	121.684993	461.384381	-438.307612	63.484061	391.286383	-429.458764	150.230452	449.455557	-410.531560	4.551617	277.471715	-405.643007	0.000000	0.000000	-0.000000	-63.483319	230.489200	-355.032022	244.676693	214.952957	-360.498764	151.957774	212.646765	-315.233034	124.490208	192.081106	-429.257958	-217.786352	944.377058	-234.723526	-11.616250	80.139875	-434.825837	-12.098870	81.006428	-34.814233	
